flac 8
Mercyful Fate Crush The Cross

Live Den Bosch Holland 25.6.1983.

ripped from my silver cd

fingerprints included

I don´t have a scanner, so I can´t scan the covers

good soundboard recording

1. Corpse Without Soul
2. Doomed By The iving Dead
3. Black Masses
4. At The Sound Of The Demon Bell
5. Satan's Fall
6. Into The Coven
7. The Oath
8. Curse Of The Pharaohs
9. Evil
10. Nuns Have No Fun


Information ripping to FLAC, 'Track 1' to 'D:Mercyful Fate - Crush the Cross 1 - Corpse without Soul.flac'
Track 1: Ripped LBA 0 to 34925 (7:45) in 0:30. Filename: D:Mercyful Fate - Crush the Cross 1 - Corpse without Soul.flac
AccurateRip: Accurate (confidence 1) [Pass 1]
CRC32: CA391F48

Information ripping to FLAC, 'Track 2' to 'D:Mercyful Fate - Crush the Cross 2 - Doomed by the Living Dead.flac'
Track 2: Ripped LBA 34925 to 60902 (5:46) in 0:28. Filename: D:Mercyful Fate - Crush the Cross 2 - Doomed by the Living Dead.flac
AccurateRip: Accurate (confidence 1) [Pass 1]
CRC32: B3755F67

Information ripping to FLAC, 'Track 3' to 'D:Mercyful Fate - Crush the Cross 3 - Black Masses.flac'
Track 3: Ripped LBA 60902 to 83110 (4:56) in 0:11. Filename: D:Mercyful Fate - Crush the Cross 3 - Black Masses.flac
AccurateRip: Accurate (confidence 1) [Pass 1]
CRC32: 9DD7B7B5

Information ripping to FLAC, 'Track 4' to 'D:Mercyful Fate - Crush the Cross 4 - At the Sound of the Demon Bell.flac'
Track 4: Ripped LBA 83110 to 107612 (5:26) in 0:11. Filename: D:Mercyful Fate - Crush the Cross 4 - At the Sound of the Demon Bell.flac
AccurateRip: Accurate (confidence 1) [Pass 1]
CRC32: 9E0F1F19

Information ripping to FLAC, 'Track 5' to 'D:Mercyful Fate - Crush the Cross 5 - Satan's Fall.flac'
Track 5: Ripped LBA 107612 to 160340 (11:43) in 0:22. Filename: D:Mercyful Fate - Crush the Cross 5 - Satan's Fall.flac
AccurateRip: Accurate (confidence 1) [Pass 1]
CRC32: 8DD7B5C1

Information ripping to FLAC, 'Track 6' to 'D:Mercyful Fate - Crush the Cross 6 - Into the Coven.flac'
Track 6: Ripped LBA 160340 to 182327 (4:53) in 0:11. Filename: D:Mercyful Fate - Crush the Cross 6 - Into the Coven.flac
AccurateRip: Accurate (confidence 1) [Pass 1]
CRC32: BC7740F9

Information ripping to FLAC, 'Track 7' to 'D:Mercyful Fate - Crush the Cross 7 - The Oath.flac'
Track 7: Ripped LBA 182327 to 206075 (5:16) in 0:09. Filename: D:Mercyful Fate - Crush the Cross 7 - The Oath.flac
AccurateRip: Accurate (confidence 1) [Pass 1]
CRC32: 29E596E5

Information ripping to FLAC, 'Track 8' to 'D:Mercyful Fate - Crush the Cross 8 - Curse of the Pharaohs.flac'
Track 8: Ripped LBA 206075 to 224042 (3:59) in 0:18. Filename: D:Mercyful Fate - Crush the Cross 8 - Curse of the Pharaohs.flac
AccurateRip: Accurate (confidence 1) [Pass 1]
CRC32: 25BE27AE

Information ripping to FLAC, 'Track 9' to 'D:Mercyful Fate - Crush the Cross 9 - Evil.flac'
Track 9: Ripped LBA 224042 to 243332 (4:17) in 0:06. Filename: D:Mercyful Fate - Crush the Cross 9 - Evil.flac
AccurateRip: Accurate (confidence 1) [Pass 1]
CRC32: D8EBB831

Information ripping to FLAC, 'Track 10' to 'D:Mercyful Fate - Crush the Cross10 - Nuns Have No Fun.flac'
Track 10: Ripped LBA 243332 to 269445 (5:48) in 0:09. Filename: D:Mercyful Fate - Crush the Cross10 - Nuns Have No Fun.flac
AccurateRip: Accurate (confidence 1) [Pass 1]
CRC32: F24826D5